 <svg version="1.0" xmlns="http://www.w3.org/2000/svg" width="700.000000pt" height="678.000000pt" viewBox="0 0 700.000000 678.000000" preserveAspectRatio="xMidYMid meet">
<g transform="translate(0.000000,678.000000) scale(0.100000,-0.100000)" stroke="none">
<path d="M362 6548 c-13 -7 -26 -26 -31 -47 -10 -38 -6 -6135 4 -6151 3 -4 27
-13 53 -18 74 -16 6075 -14 6127 1 32 10 41 18 46 42 11 52 10 6086 -1 6126
-6 23 -19 40 -36 47 -35 16 -6128 16 -6162 0z m5954 -205 c12 -7 27 -27 33
-44 8 -23 11 -417 11 -1361 l0 -1330 -28 -28 c-19 -19 -44 -31 -73 -35 -62 -9
-810 -1 -832 9 -48 22 -47 9 -47 913 0 663 -3 853 -13 873 l-13 25 -869 5
c-479 3 -878 9 -888 14 -45 22 -47 41 -47 483 0 316 3 424 13 443 7 14 28 30
47 37 51 18 2676 13 2706 -4z m-3015 -22 l24 -19 0 -437 0 -437 -24 -19 c-22
-18 -51 -19 -870 -19 -785 0 -849 -1 -881 -18 -25 -12 -37 -26 -41 -47 -4 -16
-7 -407 -8 -868 l-1 -839 -29 -29 -29 -29 -412 0 c-443 0 -459 2 -476 52 -6
17 -10 2271 -5 2626 1 42 6 58 26 77 l24 25 1339 0 c1304 0 1340 -1 1363 -19z
m1818 -1162 c19 -7 36 -22 42 -36 5 -15 9 -688 9 -1688 0 -1622 0 -1663 -19
-1686 l-19 -24 -1659 -3 c-912 -1 -1673 0 -1690 3 -67 12 -63 -110 -63 1719 0
1221 3 1662 11 1680 7 14 24 30 38 35 39 14 3309 14 3350 0z m-3635 -1842 c33
-33 35 -88 36 -987 1 -684 3 -787 16 -800 13 -13 129 -16 889 -20 l874 -5 23
-23 23 -23 0 -422 c0 -232 -3 -434 -8 -449 -17 -62 64 -59 -1412 -56 l-1344 3
-23 23 -23 23 -3 1332 c-2 950 0 1343 8 1370 7 23 20 41 33 47 12 5 217 9 455
9 l433 1 23 -23z"></path>
</g>
</svg>